<?xml version="1.0" encoding="utf-8"?>
<!-- Generator: Adobe Illustrator 19.2.1, SVG Export Plug-In . SVG Version: 6.00 Build 0)  -->
<svg version="1.1" id="Layer_1" xmlns="http://www.w3.org/2000/svg" xmlns:xlink="http://www.w3.org/1999/xlink" x="0px" y="0px"
	 viewBox="0 0 98.3 99.4" style="enable-background:new 0 0 98.3 99.4;" xml:space="preserve">
<style type="text/css">
	.st0{opacity:0.79;fill:#D93E41;}
	.st1{fill:#FFFFFF;}
</style>
<path class="st0" d="M12,99.4h74.3c6.6,0,12-5.4,12-12V12c0-6.6-5.4-12-12-12H12C5.4,0,0,5.4,0,12v75.4C0,94,5.4,99.4,12,99.4z"/>
<g sketch:type="MSPage">
	<g sketch:type="MSArtboardGroup">
		<path sketch:type="MSShapeGroup" class="st1" d="M37.4,49.8c0.1,1,0.4,1.5,0.6,1.7c2.8,2.3,10.8,9.7,12.8,18.2
			c0.5,2.1,0.2,4.1,0.8,6.1c0.3,0.7,2.8,3.6,5.5-0.8c2.8-4.3-0.6-17.6-0.6-17.6s-0.7-1.5,6.7-1.5c1.1,0,3.1,0,4.1,0
			c1.2,0,5.9-0.9,5.5-4.5c-0.3-3.7-3.7-4-3.7-4s5.5-0.7,5.5-4s-0.9-5-6.2-5c0,0,5.5-0.7,4.6-5s-5.9-3.3-5.9-3.3s3.1-2.1,2.5-4.7
			s-1.8-3.7-6.8-4s-25.6,2.8-25.6,6.4c0,2-0.3,17.4-0.2,18.7C37.1,46.6,37.2,48.5,37.4,49.8L37.4,49.8z"/>
		<path sketch:type="MSShapeGroup" class="st1" d="M34.2,50.3c0,1.1-0.9,1.9-1.9,1.9h-5.8c-1.1,0-1.9-0.9-1.9-1.9V28.2
			c0-1.1,0.9-1.9,1.9-1.9h5.8c1.1,0,1.9,0.9,1.9,1.9V50.3L34.2,50.3z"/>
	</g>
</g>
</svg>
