<svg id="Layer_1" data-name="Layer 1" xmlns="http://www.w3.org/2000/svg" viewBox="0 0 98.32 99.41"><defs><style>.cls-1{fill:#db2f30;opacity:0.79;}.cls-2{fill:#fff;}</style></defs><title>No</title><rect class="cls-1" width="98.32" height="99.41" rx="12" ry="12"/><path class="cls-2" d="M36.23,50.33a1.92,1.92,0,0,1-1.93,1.93H28.53a1.93,1.93,0,0,1-1.93-1.93V28.2a1.92,1.92,0,0,1,1.93-1.93h5.78a1.93,1.93,0,0,1,1.93,1.93V50.33h0Z"/><path class="cls-2" d="M37.37,49.82A2.77,2.77,0,0,0,38,51.49c2.78,2.34,10.83,9.73,12.76,18.19,0.47,2.05.17,4.06,0.78,6.06,0.31,0.66,2.77,3.55,5.55-.76s-0.62-17.61-.62-17.61-0.69-1.49,6.72-1.46h4.06c1.23,0,5.86-.86,5.55-4.52a4.24,4.24,0,0,0-3.7-4s5.55-.66,5.55-4-0.92-5-6.17-5c0,0,5.55-.66,4.62-5s-5.86-3.32-5.86-3.32,3.08-2.09,2.47-4.65-1.85-3.65-6.78-4-25.59,2.76-25.59,6.41c0,2-.26,17.41-0.24,18.69a32.41,32.41,0,0,0,.25,3.24h0Z"/></svg>