<?xml version="1.0" encoding="utf-8"?>
<!-- Generator: Adobe Illustrator 19.2.1, SVG Export Plug-In . SVG Version: 6.00 Build 0)  -->
<svg version="1.1" id="Layer_1" xmlns="http://www.w3.org/2000/svg" xmlns:xlink="http://www.w3.org/1999/xlink" x="0px" y="0px"
	 viewBox="0 0 98.3 99.4" style="enable-background:new 0 0 98.3 99.4;" xml:space="preserve">
<style type="text/css">
	.st0{opacity:0.79;enable-background:new    ;}
	.st1{fill:#FDFFFD;}
</style>
<title>Yes</title>
<path class="st0" d="M12,99.4h74.3c6.6,0,12-5.4,12-12V12c0-6.6-5.4-12-12-12H12C5.4,0,0,5.4,0,12v75.4C0,94,5.4,99.4,12,99.4z"/>
<g>
	<path class="st1" d="M66.2,26.9L66,27.1L28,65.1c-0.4,0.4-0.8,0.9-1,1.2c-3.7-4.7-5.8-10.8-5.8-17.4c0-15.8,11.9-27.8,27.7-27.8
		C55.5,21.1,61.5,23.3,66.2,26.9z M32.8,71.8c0.3-0.2,0.7-0.5,1.1-0.9L71.8,33l0.1-0.1c3.1,4.5,4.9,10,4.9,16.1
		c0,15.8-12,27.9-27.8,27.9C42.9,76.9,37.3,75,32.8,71.8z M14,49c0,19.3,15.7,35,35,35c19.3,0,35-15.7,35-35S68.3,14,49,14
		C29.7,14,14,29.7,14,49z"/>
</g>
</svg>
