<?xml version="1.0" encoding="utf-8"?>
<!-- Generator: Adobe Illustrator 19.2.1, SVG Export Plug-In . SVG Version: 6.00 Build 0)  -->
<svg version="1.1" id="Layer_1" xmlns="http://www.w3.org/2000/svg" xmlns:xlink="http://www.w3.org/1999/xlink" x="0px" y="0px"
	 viewBox="0 0 98.3 99.4" style="enable-background:new 0 0 98.3 99.4;" xml:space="preserve">
<style type="text/css">
	.st0{opacity:0.79;fill:#3BC448;}
	.st1{fill:#FFFFFF;}
</style>
<path class="st0" d="M12,99.4h74.3c6.6,0,12-5.4,12-12V12c0-6.6-5.4-12-12-12H12C5.4,0,0,5.4,0,12v75.4C0,94,5.4,99.4,12,99.4z"/>
<path class="st1" d="M25.4,72.4c0,0.5,0.4,0.9,0.9,0.9h7.8c0.5,0,0.9-0.4,0.9-0.9V47.8c0-0.5-0.4-0.9-0.9-0.9h-7.8
	c-0.5,0-0.9,0.4-0.9,0.9V72.4z"/>
<path class="st1" d="M71.8,51c-1.8-3,2.4-4.5-1.2-7.3c-4.6-3.5-4.3-3-14.2-3.1c-1.6,0-3.5,0.2-3-3.1c2-13-1.3-15.4-3.5-16
	c-4.6-1.3,1,4.1-4.8,14c-0.5,0.9-2.1,1.9-3.1,3.6c-2.2,3.5-4.2,9-6,9c-1.3,0-4.6,0-7.4,0v22.2c4.2-0.3,10.1-0.8,11.6-0.9
	c2.4-0.2,4.3,1.4,7.8,1.4c3.1,0,5.1,1.9,15.6,0.3c1.5-0.2,4.3-3.1,3.7-5.4c-0.4-1.8,4.7-3.2,3.6-6.5C69.6,55.3,74.2,55.2,71.8,51z"
	/>
</svg>
