<svg id="Layer_1" data-name="Layer 1" xmlns="http://www.w3.org/2000/svg" viewBox="0 0 98.3 99.4"><defs><style>.cls-1{fill:#3bc448;opacity:0.79;isolation:isolate;}.cls-2{fill:#fff;}</style></defs><title>Yes</title><path class="cls-1" d="M12,99.4H86.3a12,12,0,0,0,12-12V12a12,12,0,0,0-12-12H12A12,12,0,0,0,0,12V87.4A12,12,0,0,0,12,99.4Z"/><path class="cls-2" d="M25.4,72.4a0.9,0.9,0,0,0,.9.9h7.8a0.9,0.9,0,0,0,.9-0.9V47.8a0.9,0.9,0,0,0-.9-0.9H26.3a0.9,0.9,0,0,0-.9.9V72.4Z"/><path class="cls-2" d="M71.8,51c-1.8-3,2.4-4.5-1.2-7.3-4.6-3.5-4.3-3-14.2-3.1-1.6,0-3.5.2-3-3.1,2-13-1.3-15.4-3.5-16-4.6-1.3,1,4.1-4.8,14-0.5.9-2.1,1.9-3.1,3.6-2.2,3.5-4.2,9-6,9H28.6V70.3c4.2-.3,10.1-0.8,11.6-0.9,2.4-.2,4.3,1.4,7.8,1.4,3.1,0,5.1,1.9,15.6.3,1.5-.2,4.3-3.1,3.7-5.4-0.4-1.8,4.7-3.2,3.6-6.5C69.6,55.3,74.2,55.2,71.8,51Z"/></svg>