<?xml version="1.0" encoding="utf-8"?>
<!-- Generator: Adobe Illustrator 19.1.0, SVG Export Plug-In . SVG Version: 6.00 Build 0)  -->
<svg version="1.1" id="Layer_1" xmlns="http://www.w3.org/2000/svg" xmlns:xlink="http://www.w3.org/1999/xlink" x="0px" y="0px"
	 viewBox="0 0 804 453.9" style="enable-background:new 0 0 804 453.9;" xml:space="preserve">
<style type="text/css">
	.st0{fill:#CD181F;}
	.st1{fill:#042F5F;}
</style>
<g>
	<polygon class="st0" points="372.8,244.6 44.5,244.6 44.5,302.4 452,302.4 	"/>
	<polygon class="st0" points="682.4,244.6 603,302.4 763.4,302.4 763.4,244.6 	"/>
</g>
<path class="st1" d="M667.6,244.7l-86.6,62.9l33.3,102.2l-86.7-63.1l-86.9,63.1L474,307.6l-86.4-62.9h106.7l33.3-101.7l33.1,101.7
	H667.6z"/>
<g>
	<path class="st1" d="M369.6,231l5.5-1c3.6-0.7,4.7-1.4,4.7-8.8v-64.1c0-7.4-1-8.2-4.7-8.8l-5.5-1v-3.1h39.9v3.1l-5.5,1
		c-3.9,0.8-4.7,1.4-4.7,8.8v64.1c0,7.4,0.8,8.1,4.7,8.8l5.5,1v3.1h-39.9V231z"/>
	<path class="st1" d="M44.5,189.8c0-34.1,21.5-47.3,46.2-47.3c10,0,19,1.4,24.4,3.1l1.4,26.4h-3.6c-3.1-7.4-6.6-13.9-9.6-18.2
		c-3-4.3-6.5-6.2-14-6.2c-16.5,0-23.9,10.9-23.9,39.8c0,32.9,7.5,43.3,23.1,43.3c9.2,0,12.7-2.3,16.3-7.3c3.5-5.2,6.2-10.5,9.2-18.1
		h3.3l-1.4,25c-6,2.6-16,5.5-28.6,5.5C62.7,235.7,44.5,221.4,44.5,189.8z"/>
	<path class="st1" d="M116.9,231l3.4-0.9c3.9-1,4.8-2.2,8.8-13.3l25.9-72.8h10.7l26.9,73.7c3.5,9.4,5.1,11.4,8.6,12.5l3.1,0.8v3.1
		h-39.1V231l3.6-0.9c3.4-0.9,4.6-2.3,4.6-4.8c0-2.2-1-5.6-2.3-9.2l-4.2-11.8h-26.9l-3.9,11.8c-1.3,3.6-1.8,6.6-1.8,8.6
		c0,3.4,1.4,4.5,5.1,5.5l3.9,0.9v3.1h-26.3V231z M141.6,199.2h23.5l-11.7-33.8h-0.7L141.6,199.2z"/>
	<path class="st1" d="M212.6,157.6h-0.5v62c0,9,1,9.6,5.9,10.5l4.9,0.9v3.1h-26.5V231l4.2-0.9c4-0.8,5.6-1.6,5.6-10.3v-62.8
		c0-7.4-1.2-8.1-4.7-8.8l-5.1-1v-3.1h30.2l38.5,58.2h0.5v-43.7c0-9-0.9-9.6-5.7-10.5l-5.5-0.9v-3.1h27v3.1l-4.3,0.9
		c-3.9,0.8-5.5,1.6-5.5,10.3v76.1h-7.7L212.6,157.6z"/>
	<path class="st1" d="M282.3,231l5.1-1c3.5-0.8,4.7-1.4,4.7-8.8v-64.1c0-7.4-1.2-8.1-4.7-8.8l-5.1-1v-3.1h41.6
		c26,0,44.3,12.1,44.3,43.8c0,29.9-17.8,46.3-45,46.3h-41V231z M347.8,190.6c0-29.9-7.8-41.5-26-41.5c-4.9,0-8.6,0.5-10.3,1.2v66.8
		c0,10.3,1.3,12,10.5,12C341.2,229.1,347.8,214.8,347.8,190.6z"/>
	<path class="st1" d="M415.6,231l5.1-1c3.5-0.8,4.7-1.4,4.7-8.8v-64.1c0-7.4-1.2-8.1-4.7-8.8l-5.1-1v-3.1h41.6
		c26,0,44.3,12.1,44.3,43.8c0,29.9-17.8,46.3-45,46.3h-41V231z M481.2,190.6c0-29.9-7.8-41.5-26-41.5c-4.9,0-8.6,0.5-10.3,1.2v66.8
		c0,10.3,1.3,12,10.5,12C474.5,229.1,481.2,214.8,481.2,190.6z"/>
	<path class="st1" d="M564.5,231l5.5-1c4-0.8,4.8-1.4,4.8-8.8v-72H573c-10,0-11.6,0.7-15.2,6.5c-2.9,4.4-4.7,8.6-7.8,16.9h-3.8
		l1.2-28.5h74.5l1.2,28.5h-3.8c-3.1-8.3-4.9-12.5-7.8-16.9c-3.9-6-5.1-6.5-15.3-6.5h-1.7v72c0,7.4,0.5,8.1,4.8,8.8l5.3,1v3.1h-40
		V231z"/>
	<path class="st1" d="M626.3,231l5.1-1c3.5-0.8,4.7-1.4,4.7-8.8v-64.1c0-7.4-1.2-8.1-4.7-8.8l-5.1-1v-3.1h68.5l1.3,24.8h-3.4
		c-3.1-6.9-5.2-10.5-6.9-13.1c-4-5.9-6.6-6.5-16.6-6.5c-7.8,0-11.4,0.6-13.7,1.2v34.5h5.1c9.5,0,12.2-0.9,13.9-4
		c1.7-3.1,2.6-5.9,3.6-10.1h3.5v33.7h-3.5c-1-4.2-2-6.9-3.6-10.4c-1.7-3.5-3.6-4-13.9-4h-5.1v25.1c0,12.6,0.4,13.9,14.8,13.9
		c11.1,0,13-1.2,17.2-7.2c2.2-3.1,4.9-9.1,8.1-17h3.6l-1.8,29.4h-71.1V231z"/>
	<path class="st1" d="M704.6,231.4L703,207h3.8c3.1,6.6,5.6,11.4,9,16.4c3.9,5.7,7.8,7.3,16,7.3c11.3,0,16.3-6,16.3-14.8
		c0-8.3-4.7-13-20.2-19.4c-17.4-7.2-23.8-14.8-23.8-28c0-15.1,12.2-26.1,30.7-26.1c10.9,0,17.7,1.4,22.1,3.1l1.4,21.8h-3.5
		c-3.3-6.9-4.9-9.6-8.2-13.8c-3.4-4.4-5.7-6-13.4-6c-9.6,0-15,4.5-15,13c0,7.7,3,11.7,17.8,17.8c19.6,8.2,27.3,15.7,27.3,28
		c0,16.3-11.6,29.5-32.9,29.5C719,235.9,709.8,233.8,704.6,231.4z"/>
</g>
<g>
	<path class="st0" d="M47.2,127.9l5-1c3.4-0.6,4.6-1.4,4.6-8.6V55.6c0-7.2-1.1-7.9-4.6-8.6l-5-1v-3h38.1v3l-5,1
		c-3.8,0.9-4.6,1.4-4.6,8.6v62.6c0,7.2,0.8,7.7,4.6,8.6l5,1v3H47.2V127.9z M79.3,88.4v-2l24-27.8c2.5-2.9,3.6-5.5,3.6-7.2
		c0-2.2-1.7-3.6-4.4-4.3l-3.8-1v-3h29.2v3l-3.2,0.8c-4.4,1.1-6.2,2.8-13,10.3L93.3,77.6c8.1,15.7,21.1,34.9,30.2,46.5
		c1.7,2,2.2,2.4,4.1,2.9l3.9,0.9v3h-25.3C96.4,118.5,86.7,103.1,79.3,88.4z"/>
	<path class="st0" d="M147.4,56.2h-0.5v60.6c0,8.8,1,9.4,5.7,10.3l4.8,0.9v3h-25.9v-3l4.1-0.9c3.9-0.8,5.5-1.5,5.5-10V55.6
		c0-7.2-1.1-7.9-4.6-8.6l-5-1v-3H161l37.6,56.9h0.5V57.2c0-8.8-0.9-9.4-5.6-10.3l-5.3-0.9v-3h26.4v3l-4.2,0.9
		c-3.8,0.8-5.3,1.5-5.3,10v74.3h-7.5L147.4,56.2z"/>
	<path class="st0" d="M215.7,88.2c0-33.3,21.6-46.7,42-46.7c22,0,41,14.2,41,44.7c0,33.4-21.6,46.4-42,46.4
		C234.8,132.5,215.7,118,215.7,88.2z M278.8,88.7c0-25.8-5.3-42.3-22-42.3c-14.2,0-21.2,10.4-21.2,39.2c0,25.8,5.2,41.9,21.8,41.9
		C272.1,127.5,278.8,117.5,278.8,88.7z"/>
	<path class="st0" d="M303.4,58.3c-2.9-8.8-3.9-10.7-7.6-11.6l-3.3-0.8v-3h37.1v3l-3.6,0.8c-2.8,0.8-4.2,2.2-4.2,4.8
		c0,2.3,1,5.6,2,9l15.1,48.3h0.6l13.5-40.8l-3.6-10.9c-2.3-7.4-3.8-9.4-7.4-10.4L339,46v-3h37v3l-4.2,0.9c-2.7,0.6-3.9,2.2-3.9,5
		c0,2.2,0.8,5.5,1.8,8.8l15.1,48.3h0.6l13.6-48.3c0.9-3.2,1.7-6.5,1.7-8.9c0-2.7-1.4-4.3-4.3-5l-4.1-0.8v-3h24.9v3l-3.3,0.8
		c-4.1,1-5.5,4.6-8.4,14.2l-21.5,70h-10.7l-17-53.6h-0.4L338,131h-10.5L303.4,58.3z"/>
	<path class="st0" d="M459.5,127.9l5.3-1c3.9-0.8,4.7-1.4,4.7-8.6V95l-20.3-37.2c-4.4-8.1-5.8-9.9-9.3-11l-2.8-0.8v-3h39.1v3
		l-3.6,0.8c-3.6,0.9-5,2.3-5,5c0,1.7,0.8,4.1,2.4,7.1L485,88.2h0.5l13.1-28.8c1.7-3.4,2-5.6,2-7.5c0-2.5-1.3-4.1-5.1-5l-3.7-0.9v-3
		H518v3l-2.7,0.8c-3.9,1.4-6,3.9-10.2,12.7l-16.5,34.7v24.1c0,7.2,0.5,7.9,4.7,8.6l5.2,1v3h-39.1V127.9z"/>
	<path class="st0" d="M509.8,88.2c0-33.3,21.6-46.7,42-46.7c22,0,41,14.2,41,44.7c0,33.4-21.6,46.4-42,46.4
		C528.9,132.5,509.8,118,509.8,88.2z M573,88.7c0-25.8-5.3-42.3-22-42.3c-14.2,0-21.2,10.4-21.2,39.2c0,25.8,5.2,41.9,21.8,41.9
		C566.2,127.5,573,117.5,573,88.7z"/>
	<path class="st0" d="M603.7,102.6v-47c0-7.2-1-7.9-4.6-8.6l-4.8-1v-3h37.8v3l-4.7,1c-3.8,0.9-4.6,1.4-4.6,8.6v49
		c0,14,6,20.4,21.1,20.4c14.4,0,20.2-8.3,20.2-22v-46c0-8.8-0.9-9.4-5.7-10.3l-5.5-0.9v-3h26.5v3l-4.2,0.9c-3.7,0.8-5.2,1.5-5.2,10
		V104c0,15.6-9.4,28.4-31.4,28.4C617.9,132.5,603.7,124.2,603.7,102.6z"/>
	<path class="st0" d="M680.1,127.9l5-1c3.4-0.6,4.6-1.4,4.6-8.6V55.6c0-7.2-1.1-7.9-4.6-8.6l-5-1v-3h39.5c23,0,32.8,7.7,32.8,22.9
		c0,10.3-6,17.7-18.4,21.3v0.4c5.8,11.4,15.1,27.2,22.2,36.4c1.4,1.8,2.5,2.5,5.1,3.3l2.3,0.6v3h-24.6c-8-10.8-16.9-26.9-22.5-39.5
		h-7.7v26.8c0,7.2,0.8,7.9,4.4,8.6l5,1v3h-38V127.9z M733,67.3c0-15-4.1-19.3-14.6-19.3c-4.6,0-8,0.4-9.7,0.9v37.5
		c0.4,0.1,3.2,0.5,6.5,0.5C727.6,86.9,733,81.8,733,67.3z"/>
</g>
<g>
	<polygon class="st0" points="527.6,357.4 455.4,409.8 599.7,409.8 	"/>
	<polygon class="st0" points="450.4,352.1 44.5,352.1 44.5,409.8 431.6,409.8 	"/>
	<polygon class="st0" points="604.6,352.1 623.4,409.8 763.4,409.8 763.4,352.1 	"/>
</g>
</svg>
